<svg width="117" height="25" viewBox="0 0 117 25" fill="none" xmlns="http://www.w3.org/2000/svg">
<path d="M0.80957 24H6.90234V16.9775H11.0195C16.3652 16.9775 19.8184 13.6904 19.8184 8.56055V8.52734C19.8184 3.39746 16.3652 0.0439453 11.0195 0.0439453H0.80957V24ZM9.55859 4.70898C12.1318 4.70898 13.6592 6.03711 13.6592 8.52734V8.56055C13.6592 11.0508 12.1318 12.3955 9.55859 12.3955H6.90234V4.70898H9.55859ZM22.126 24H28.0195V14.4043C28.0195 11.8311 29.3643 10.4697 31.8379 10.4697C32.5352 10.4697 33.2158 10.6025 33.7139 10.8018V5.77148C33.2656 5.62207 32.751 5.53906 32.1865 5.53906C30.0615 5.53906 28.6338 6.83398 28.1357 9.125H28.0195V5.9209H22.126V24ZM43.6748 24.3818C49.4355 24.3818 51.71 20.9951 52.2578 18.4883L52.3076 18.2891H46.9951L46.9785 18.3721C46.7129 19.1191 45.6836 20.1982 43.791 20.1982C41.6494 20.1982 40.3213 18.7539 40.2549 16.3135H52.4072V14.5869C52.4072 9.1084 48.9375 5.53906 43.4756 5.53906C37.9805 5.53906 34.4941 9.1416 34.4941 14.9521V14.9688C34.4941 20.8125 37.9639 24.3818 43.6748 24.3818ZM43.6084 9.72266C45.335 9.72266 46.5635 10.8184 46.8623 12.8438H40.3379C40.6367 10.8516 41.8818 9.72266 43.6084 9.72266ZM62.6504 24.3818C67.6143 24.3818 71.001 22.0078 71.001 18.2725V18.2559C71.001 15.5498 69.3408 14.0557 65.5059 13.292L62.3184 12.6611C60.6084 12.3125 60.0605 11.8477 60.0605 11.0674V11.0508C60.0605 10.1045 60.9902 9.50684 62.4346 9.50684C64.0615 9.50684 64.9746 10.3867 65.1074 11.4492L65.124 11.582H70.5029L70.4863 11.4492C70.4365 8.21191 67.6641 5.53906 62.4346 5.53906C57.4873 5.53906 54.3994 7.78027 54.3994 11.3828V11.3994C54.3994 14.1553 56.2422 15.998 59.7783 16.6787L62.9658 17.3096C64.5762 17.6416 65.1572 18.0898 65.1572 18.9033V18.9199C65.1572 19.8496 64.2109 20.4141 62.6504 20.4141C60.9238 20.4141 59.9941 19.7002 59.7119 18.4717L59.6787 18.3389H53.9678L53.9844 18.4883C54.3828 22.0078 57.2715 24.3818 62.6504 24.3818ZM81.0449 24.3818C86.0088 24.3818 89.3955 22.0078 89.3955 18.2725V18.2559C89.3955 15.5498 87.7354 14.0557 83.9004 13.292L80.7129 12.6611C79.0029 12.3125 78.4551 11.8477 78.4551 11.0674V11.0508C78.4551 10.1045 79.3848 9.50684 80.8291 9.50684C82.4561 9.50684 83.3691 10.3867 83.502 11.4492L83.5186 11.582H88.8975L88.8809 11.4492C88.8311 8.21191 86.0586 5.53906 80.8291 5.53906C75.8818 5.53906 72.7939 7.78027 72.7939 11.3828V11.3994C72.7939 14.1553 74.6367 15.998 78.1729 16.6787L81.3604 17.3096C82.9707 17.6416 83.5518 18.0898 83.5518 18.9033V18.9199C83.5518 19.8496 82.6055 20.4141 81.0449 20.4141C79.3184 20.4141 78.3887 19.7002 78.1064 18.4717L78.0732 18.3389H72.3623L72.3789 18.4883C72.7773 22.0078 75.666 24.3818 81.0449 24.3818ZM96.916 24.249C99.2734 24.249 101.066 23.2197 102.096 21.4434H102.212V24H108.089V11.665C108.089 7.99609 104.885 5.53906 100.021 5.53906C94.9902 5.53906 91.9854 7.94629 91.7031 11.4658L91.6865 11.6816H96.9824L97.0156 11.5156C97.2148 10.5859 98.1445 9.85547 99.7217 9.85547C101.365 9.85547 102.212 10.6689 102.212 11.9805V12.877L98.0947 13.1426C93.4297 13.458 90.8066 15.3672 90.8066 18.7705V18.7871C90.8066 21.9414 93.2803 24.249 96.916 24.249ZM96.584 18.4053V18.3887C96.584 17.3096 97.3975 16.6289 99.041 16.5293L102.212 16.3135V17.5254C102.212 19.0527 100.867 20.1816 98.9746 20.1816C97.5303 20.1816 96.584 19.5342 96.584 18.4053ZM113.816 24.3154C115.56 24.3154 116.938 22.9375 116.938 21.1943C116.938 19.4678 115.56 18.0898 113.816 18.0898C112.09 18.0898 110.712 19.4678 110.712 21.1943C110.712 22.9375 112.09 24.3154 113.816 24.3154Z" fill="#181818"/>
</svg>
